<svg width="396" height="73" viewBox="0 0 396 73" fill="none" xmlns="http://www.w3.org/2000/svg">
<path fill-rule="evenodd" clip-rule="evenodd" d="M29.5323 0.195312C33.8593 0.195312 37.5012 4.13644 40.0652 11.5913C41.7938 16.6182 42.9511 23.1499 43.3802 30.1088C52.4881 35.7037 60.8687 44.2555 58.2746 52.0009C56.2442 57.1549 49.6145 58.1857 44.72 57.3015C43.5686 57.1045 42.4275 56.843 41.2999 56.5267C40.9296 58.0237 40.5177 59.4375 40.0668 60.7489C37.5028 68.2037 33.8609 72.1433 29.5323 72.1433C25.2038 72.1433 21.5619 68.2037 18.9979 60.7489C18.5478 59.4398 18.1365 58.0287 17.7668 56.5345C16.6501 56.8467 15.5202 57.1049 14.3802 57.3C9.48568 58.1842 2.85759 57.1534 0.825558 51.9994C-1.76439 44.264 6.59034 35.7235 15.6833 30.1296C16.1114 23.1634 17.2677 16.623 18.9979 11.5913C21.5619 4.13644 25.2054 0.195312 29.5323 0.195312ZM15.4983 36.2465C14.9402 36.7316 14.3906 37.2255 13.8513 37.7302C13.7221 37.8548 13.5899 37.9821 13.455 38.1118C10.7874 40.6784 7.11199 44.2146 6.47165 47.7913C5.94276 50.9192 8.33358 52.5456 11.2239 52.9021C12.7771 53.0853 14.9213 52.7765 16.8799 52.3588C15.9886 47.419 15.5027 41.8704 15.4983 36.2465ZM22.0032 50.969C21.2053 46.4545 20.7825 41.406 20.7825 36.1701C20.7825 34.7428 20.8139 33.3294 20.8758 31.937C21.4846 31.4769 22.0964 31.0199 22.7094 30.5639C26.3513 27.9576 29.5509 26.3311 29.5509 26.3311C29.5509 26.3311 33.8605 28.5376 38.1888 31.9353C38.2507 33.3282 38.2822 34.7421 38.2822 36.1701C38.2822 41.4034 37.8598 46.4495 37.0627 50.9624C34.4139 50.0721 32.6215 49.2246 31.4546 48.5644C30.2653 47.8916 28.7251 47.8654 27.4817 48.532C26.2571 49.1886 24.5299 50.0053 22.0032 50.969ZM22.7913 54.7555C23.1257 56.1354 23.4995 57.4461 23.911 58.6749C25.5781 63.653 27.7833 66.8704 29.5323 66.8704C31.2814 66.8704 33.4866 63.653 35.1537 58.6749C35.5665 57.4424 35.9413 56.1276 36.2763 54.7431C34.9509 54.1773 33.6531 53.5506 32.3886 52.8805C32.0407 52.6907 31.6819 52.4932 31.3308 52.2833L29.7086 51.3158C29.6112 51.2571 29.489 51.2571 29.3916 51.3158L27.7957 52.2648C27.4369 52.4824 27.0688 52.6845 26.7116 52.879C25.4368 53.5545 24.128 54.186 22.7913 54.7555ZM42.1869 52.3479C44.1587 52.7703 46.3219 53.0854 47.8763 52.9021C50.7666 52.5456 53.1574 50.9192 52.6286 47.7913C51.9882 44.2146 48.3129 40.6784 45.6452 38.1118C45.5103 37.9821 45.3781 37.8548 45.2489 37.7302C44.6983 37.2148 44.1368 36.7105 43.5664 36.2154C43.5638 41.8466 43.0785 47.4023 42.1869 52.3479ZM37.8388 27.0507C35.031 25.6024 33.0562 24.8022 31.7391 24.3606C30.3071 23.8807 28.756 23.8807 27.324 24.3606C26.008 24.8021 24.0343 25.6015 21.226 27.0503C21.7257 22.0522 22.6377 17.4666 23.911 13.6637C25.5781 8.68556 27.7833 5.46815 29.5323 5.46815C31.2814 5.46815 33.4866 8.68556 35.1537 13.6637C36.4271 17.4669 37.3391 22.0523 37.8388 27.0507Z" fill="white" style="fill:white;fill-opacity:1;"/>
<path d="M378.536 29.903C372.856 29.903 369.256 32.703 368.296 38.783H387.976C387.496 32.943 384.456 29.903 378.536 29.903ZM378.776 62.143C367.256 62.143 359.576 55.2631 359.576 42.863C359.576 30.143 367.096 22.623 378.776 22.623C390.216 22.623 395.976 29.823 395.976 40.143C395.976 41.663 395.976 43.183 395.816 45.183H368.216C369.016 51.503 372.696 54.6231 378.856 54.6231C384.856 54.6231 387.096 51.663 388.216 47.823L395.736 49.9831C393.816 57.1831 388.696 62.143 378.776 62.143Z" fill="white" style="fill:white;fill-opacity:1;"/>
<path d="M342.32 62.223C330.24 62.223 326.16 56.6231 324.8 49.2631L332.88 47.663C334.08 52.383 336.48 55.583 342.48 55.583C347.04 55.583 349.28 53.823 349.36 50.863C349.36 48.143 347.44 46.703 339.92 45.343C329.76 43.343 326.16 39.823 326.16 33.823C326.16 27.023 331.12 22.623 340.96 22.623C351.2 22.623 355.44 27.023 357.04 34.223L348.8 36.063C347.68 31.103 345.44 29.023 340.96 29.023C336.88 29.023 334.72 30.703 334.72 33.423C334.72 36.063 336.24 37.823 343.84 39.103C354.32 41.023 357.84 44.863 357.84 50.6231C357.84 57.6631 352.96 62.223 342.32 62.223Z" fill="white" style="fill:white;fill-opacity:1;"/>
<path d="M321.249 18.5431H311.889V12.1431H321.249V18.5431ZM320.929 61.1831H312.289V23.5831H320.929V61.1831Z" fill="white" style="fill:white;fill-opacity:1;"/>
<path d="M296.15 61.183H287.51V23.583H296.15V35.903H296.31C297.99 26.143 301.35 23.583 307.03 23.583H309.19V33.263H305.51C298.79 33.263 296.15 35.583 296.15 42.143V61.183Z" fill="white" style="fill:white;fill-opacity:1;"/>
<path d="M265.527 54.463C272.007 54.463 275.207 49.903 275.207 42.223C275.207 34.703 272.167 30.383 265.527 30.383C259.287 30.383 255.447 34.543 255.447 41.983V42.623C255.447 49.823 259.287 54.463 265.527 54.463ZM283.767 42.223C283.767 54.703 278.487 62.223 268.967 62.223C261.447 62.223 257.287 58.143 255.607 50.463H255.447V72.1431H246.807V23.583H255.447V34.223H255.607C257.367 26.623 261.687 22.623 269.047 22.623C278.727 22.623 283.767 30.063 283.767 42.223Z" fill="white" style="fill:white;fill-opacity:1;"/>
<path d="M231.228 61.183H222.588V23.583H231.228V35.903H231.388C233.068 26.143 236.428 23.583 242.108 23.583H244.268V33.263H240.588C233.868 33.263 231.228 35.583 231.228 42.143V61.183Z" fill="white" style="fill:white;fill-opacity:1;"/>
<path d="M201.271 29.903C195.591 29.903 191.991 32.703 191.031 38.783H210.711C210.231 32.943 207.191 29.903 201.271 29.903ZM201.511 62.143C189.991 62.143 182.311 55.2631 182.311 42.863C182.311 30.143 189.831 22.623 201.511 22.623C212.951 22.623 218.711 29.823 218.711 40.143C218.711 41.663 218.711 43.183 218.551 45.183H190.951C191.751 51.503 195.431 54.6231 201.591 54.6231C207.591 54.6231 209.831 51.663 210.951 47.823L218.471 49.9831C216.551 57.1831 211.431 62.143 201.511 62.143Z" fill="white" style="fill:white;fill-opacity:1;"/>
<path d="M160.773 49.743V30.863H155.653V23.583H160.773V13.583H169.333V23.583H180.453V30.863H169.333V48.303C169.333 51.983 170.773 53.823 174.533 53.823C176.453 53.823 178.213 53.343 179.893 52.943L180.933 60.863C178.213 61.743 176.213 62.223 172.533 62.223C164.293 62.223 160.773 56.783 160.773 49.743Z" fill="white" style="fill:white;fill-opacity:1;"/>
<path d="M127.557 38.943V61.183H118.917V23.583H127.557V33.903H127.637C129.317 25.903 134.117 22.623 140.437 22.623C149.477 22.623 152.917 28.543 152.917 36.703V61.183H144.277V38.943C144.277 34.383 142.277 30.383 136.437 30.383C130.917 30.383 127.557 33.583 127.557 38.943Z" fill="white" style="fill:white;fill-opacity:1;"/>
<path d="M79.3108 61.1831V13.1831H113.791V21.8231H88.4308V32.6231H111.551V41.1031H88.4308V52.5431H113.871V61.1831H79.3108Z" fill="white" style="fill:white;fill-opacity:1;"/>
</svg>
